<mxfile host="app.diagrams.net" modified="2021-11-13T09:57:11.479Z" agent="5.0 (Macintosh; Intel Mac OS X 10_15_7) AppleWebKit/537.36 (KHTML, like Gecko) Chrome/95.0.4638.69 Safari/537.36" etag="3FPylAVKrzOHJLjHyDA7" version="15.7.3" type="github">
  <diagram id="GLSMctoERfL2l0AfNuec" name="Page-1">
    <mxGraphModel dx="1188" dy="643" grid="1" gridSize="10" guides="1" tooltips="1" connect="1" arrows="1" fold="1" page="1" pageScale="1" pageWidth="827" pageHeight="1169" math="0" shadow="0">
      <root>
        <mxCell id="0" />
        <mxCell id="1" parent="0" />
        <mxCell id="fm9e9En8npvXoQngV2XS-1" value="Argument" style="swimlane;fontStyle=0;childLayout=stackLayout;horizontal=1;startSize=26;fillColor=none;horizontalStack=0;resizeParent=1;resizeParentMax=0;resizeLast=0;collapsible=1;marginBottom=0;" vertex="1" parent="1">
          <mxGeometry x="160" y="540" width="140" height="80" as="geometry" />
        </mxCell>
        <mxCell id="fm9e9En8npvXoQngV2XS-4" value="+ names: [String]&#xa;+ required: Boolean&#xa;+ repeatable: Boolean" style="text;strokeColor=none;fillColor=none;align=left;verticalAlign=top;spacingLeft=4;spacingRight=4;overflow=hidden;rotatable=0;points=[[0,0.5],[1,0.5]];portConstraint=eastwest;" vertex="1" parent="fm9e9En8npvXoQngV2XS-1">
          <mxGeometry y="26" width="140" height="54" as="geometry" />
        </mxCell>
        <mxCell id="fm9e9En8npvXoQngV2XS-5" value="ARGV" style="swimlane;fontStyle=0;childLayout=stackLayout;horizontal=1;startSize=26;fillColor=none;horizontalStack=0;resizeParent=1;resizeParentMax=0;resizeLast=0;collapsible=1;marginBottom=0;" vertex="1" parent="1">
          <mxGeometry x="370" y="540" width="140" height="80" as="geometry" />
        </mxCell>
        <mxCell id="fm9e9En8npvXoQngV2XS-6" value="+ entries: [String]&#xa;+ required: Boolean&#xa;+ repeatable: Boolean" style="text;strokeColor=none;fillColor=none;align=left;verticalAlign=top;spacingLeft=4;spacingRight=4;overflow=hidden;rotatable=0;points=[[0,0.5],[1,0.5]];portConstraint=eastwest;" vertex="1" parent="fm9e9En8npvXoQngV2XS-5">
          <mxGeometry y="26" width="140" height="54" as="geometry" />
        </mxCell>
        <mxCell id="fm9e9En8npvXoQngV2XS-7" value="Parser" style="swimlane;fontStyle=0;childLayout=stackLayout;horizontal=1;startSize=26;fillColor=none;horizontalStack=0;resizeParent=1;resizeParentMax=0;resizeLast=0;collapsible=1;marginBottom=0;" vertex="1" parent="1">
          <mxGeometry x="370" y="720" width="140" height="60" as="geometry" />
        </mxCell>
        <mxCell id="fm9e9En8npvXoQngV2XS-10" value="Use" style="endArrow=open;endSize=12;dashed=1;html=1;rounded=0;exitX=0.507;exitY=0.981;exitDx=0;exitDy=0;exitPerimeter=0;entryX=0.5;entryY=0;entryDx=0;entryDy=0;" edge="1" parent="1" source="fm9e9En8npvXoQngV2XS-6" target="fm9e9En8npvXoQngV2XS-7">
          <mxGeometry width="160" relative="1" as="geometry">
            <mxPoint x="270" y="710" as="sourcePoint" />
            <mxPoint x="430" y="710" as="targetPoint" />
          </mxGeometry>
        </mxCell>
        <mxCell id="fm9e9En8npvXoQngV2XS-11" value="Command" style="swimlane;fontStyle=0;childLayout=stackLayout;horizontal=1;startSize=26;fillColor=none;horizontalStack=0;resizeParent=1;resizeParentMax=0;resizeLast=0;collapsible=1;marginBottom=0;" vertex="1" parent="1">
          <mxGeometry x="220" y="250" width="230" height="220" as="geometry" />
        </mxCell>
        <mxCell id="fm9e9En8npvXoQngV2XS-12" value="+ abstract_command: Boolean&#xa;+ ignore_in_command_lookup: Boolean&#xa;+ default_subcommand: String&#xa;+ summary: String&#xa;+ description: StringÂ &#xa;+ plugin_prefixes: [String]&#xa;+ arguments: [Argument]&#xa;+ ansi_output: Boolean&#xa;+ command: String&#xa;+ version: String&#xa;+ subcommands: [Class]&#xa;+ help_arg: Boolean&#xa;+ argv: ARGV" style="text;strokeColor=none;fillColor=none;align=left;verticalAlign=top;spacingLeft=4;spacingRight=4;overflow=hidden;rotatable=0;points=[[0,0.5],[1,0.5]];portConstraint=eastwest;" vertex="1" parent="fm9e9En8npvXoQngV2XS-11">
          <mxGeometry y="26" width="230" height="194" as="geometry" />
        </mxCell>
        <mxCell id="fm9e9En8npvXoQngV2XS-17" value="" style="endArrow=open;endFill=1;endSize=12;html=1;rounded=0;entryX=0.5;entryY=0;entryDx=0;entryDy=0;exitX=0.281;exitY=1.002;exitDx=0;exitDy=0;exitPerimeter=0;" edge="1" parent="1" source="fm9e9En8npvXoQngV2XS-12" target="fm9e9En8npvXoQngV2XS-1">
          <mxGeometry width="160" relative="1" as="geometry">
            <mxPoint x="421" y="450" as="sourcePoint" />
            <mxPoint x="581" y="450" as="targetPoint" />
          </mxGeometry>
        </mxCell>
        <mxCell id="fm9e9En8npvXoQngV2XS-18" value="" style="endArrow=open;endFill=1;endSize=12;html=1;rounded=0;exitX=0.741;exitY=0.997;exitDx=0;exitDy=0;exitPerimeter=0;entryX=0.5;entryY=0;entryDx=0;entryDy=0;" edge="1" parent="1" source="fm9e9En8npvXoQngV2XS-12" target="fm9e9En8npvXoQngV2XS-5">
          <mxGeometry width="160" relative="1" as="geometry">
            <mxPoint x="421" y="450" as="sourcePoint" />
            <mxPoint x="581" y="450" as="targetPoint" />
          </mxGeometry>
        </mxCell>
        <mxCell id="fm9e9En8npvXoQngV2XS-19" value="PluginManager" style="swimlane;fontStyle=0;childLayout=stackLayout;horizontal=1;startSize=26;fillColor=none;horizontalStack=0;resizeParent=1;resizeParentMax=0;resizeLast=0;collapsible=1;marginBottom=0;" vertex="1" parent="1">
          <mxGeometry x="600" y="330" width="220" height="60" as="geometry" />
        </mxCell>
        <mxCell id="fm9e9En8npvXoQngV2XS-20" value="+ loaded_plugins: [Gem::Specification]" style="text;strokeColor=none;fillColor=none;align=left;verticalAlign=top;spacingLeft=4;spacingRight=4;overflow=hidden;rotatable=0;points=[[0,0.5],[1,0.5]];portConstraint=eastwest;" vertex="1" parent="fm9e9En8npvXoQngV2XS-19">
          <mxGeometry y="26" width="220" height="34" as="geometry" />
        </mxCell>
        <mxCell id="fm9e9En8npvXoQngV2XS-21" value="Use" style="endArrow=open;endSize=12;dashed=1;html=1;rounded=0;exitX=1;exitY=0.5;exitDx=0;exitDy=0;entryX=0;entryY=0.5;entryDx=0;entryDy=0;" edge="1" parent="1" source="fm9e9En8npvXoQngV2XS-12" target="fm9e9En8npvXoQngV2XS-20">
          <mxGeometry width="160" relative="1" as="geometry">
            <mxPoint x="470" y="450.00000000000006" as="sourcePoint" />
            <mxPoint x="570" y="370" as="targetPoint" />
          </mxGeometry>
        </mxCell>
        <mxCell id="fm9e9En8npvXoQngV2XS-22" value="ArgumentSuggester" style="swimlane;fontStyle=0;childLayout=stackLayout;horizontal=1;startSize=26;fillColor=none;horizontalStack=0;resizeParent=1;resizeParentMax=0;resizeLast=0;collapsible=1;marginBottom=0;" vertex="1" parent="1">
          <mxGeometry x="630" y="505" width="150" height="80" as="geometry" />
        </mxCell>
        <mxCell id="fm9e9En8npvXoQngV2XS-23" value="+ argument: String&#xa;+ command_class: Class&#xa;+ argument_type: Symbol" style="text;strokeColor=none;fillColor=none;align=left;verticalAlign=top;spacingLeft=4;spacingRight=4;overflow=hidden;rotatable=0;points=[[0,0.5],[1,0.5]];portConstraint=eastwest;" vertex="1" parent="fm9e9En8npvXoQngV2XS-22">
          <mxGeometry y="26" width="150" height="54" as="geometry" />
        </mxCell>
        <mxCell id="fm9e9En8npvXoQngV2XS-24" value="Banner" style="swimlane;fontStyle=0;childLayout=stackLayout;horizontal=1;startSize=26;fillColor=none;horizontalStack=0;resizeParent=1;resizeParentMax=0;resizeLast=0;collapsible=1;marginBottom=0;" vertex="1" parent="1">
          <mxGeometry x="560" y="700" width="220" height="80" as="geometry" />
        </mxCell>
        <mxCell id="fm9e9En8npvXoQngV2XS-25" value="+ command: Class" style="text;strokeColor=none;fillColor=none;align=left;verticalAlign=top;spacingLeft=4;spacingRight=4;overflow=hidden;rotatable=0;points=[[0,0.5],[1,0.5]];portConstraint=eastwest;" vertex="1" parent="fm9e9En8npvXoQngV2XS-24">
          <mxGeometry y="26" width="220" height="54" as="geometry" />
        </mxCell>
      </root>
    </mxGraphModel>
  </diagram>
</mxfile>
